<?xml version="1.0" encoding="utf-8"?>
<!-- Generator: Adobe Illustrator 25.4.1, SVG Export Plug-In . SVG Version: 6.00 Build 0)  -->
<svg version="1.1" id="Layer_1" xmlns="http://www.w3.org/2000/svg" xmlns:xlink="http://www.w3.org/1999/xlink" x="0px" y="0px"
	 viewBox="0 0 180 180" style="enable-background:new 0 0 180 180;" xml:space="preserve">
<path d="M81.5,107.5c-4.3,0-14.3-0.4-14.3-4c0-0.9,0.5-1.6,1.3-2C59.7,96.6,54,87,54,76.6c0-0.8,0.7-1.5,1.5-1.5h52.1
	c0.8,0,1.5,0.7,1.5,1.5c0,10.4-5.7,20-14.6,24.8c0.8,0.5,1.3,1.1,1.3,2C95.8,107.1,85.8,107.5,81.5,107.5L81.5,107.5z M71.4,103.4
	c1.8,0.5,5.2,1,10.1,1c4.9,0,8.3-0.5,10.1-1c-0.4-0.1-0.9-0.2-1.5-0.4c-0.7-0.1-1.2-0.7-1.2-1.4s0.3-1.3,1-1.5
	c9.2-3.4,15.6-12.2,16.2-22.1H57c0.6,9.9,6.9,18.7,16.2,22.1c0.6,0.2,1,0.9,1,1.5c-0.1,0.7-0.6,1.2-1.2,1.4
	C72.3,103.2,71.8,103.3,71.4,103.4L71.4,103.4z M90.3,71.5c-0.8,0-1.5-0.7-1.5-1.5v-8.4c0-0.8,0.7-1.5,1.5-1.5
	c0.8,0,1.5,0.7,1.5,1.5V70C91.8,70.8,91.2,71.5,90.3,71.5z M81.5,71.5c-0.8,0-1.5-0.7-1.5-1.5V55.5c0-0.8,0.7-1.5,1.5-1.5
	c0.8,0,1.5,0.7,1.5,1.5V70C83,70.8,82.4,71.5,81.5,71.5L81.5,71.5z M72.7,71.5c-0.8,0-1.5-0.7-1.5-1.5v-8.4c0-0.8,0.7-1.5,1.5-1.5
	c0.8,0,1.5,0.7,1.5,1.5V70C74.2,70.8,73.6,71.5,72.7,71.5L72.7,71.5z M74.7,120c-0.6,0-1.2-0.4-1.4-1c-0.3-0.8,0.1-1.6,0.9-1.9
	L124,99.5c0.8-0.3,1.6,0.1,1.9,0.9c0.3,0.8-0.1,1.6-0.9,1.9l-49.8,17.7C75,120,74.8,120,74.7,120L74.7,120z M79.8,126
	c-0.5,0-0.9-0.2-1.2-0.6c-0.5-0.7-0.4-1.6,0.3-2.1l41-32c0.7-0.5,1.6-0.4,2.1,0.3c0.5,0.7,0.4,1.6-0.3,2.1l-41,32
	C80.5,125.9,80.2,126,79.8,126L79.8,126z"/>
</svg>
